<?xml version="1.0" encoding="utf-8"?>
<svg version="1.1" xmlns:xlink="http://www.w3.org/1999/xlink" width="26px" height="26px" viewBox="3157 71  26 26" xmlns="http://www.w3.org/2000/svg">
  <path d="M 3170 71  C 3177.28 71  3183 76.72  3183 84  C 3183 91.28  3177.28 97  3170 97  C 3162.72 97  3157 91.28  3157 84  C 3157 76.72  3162.72 71  3170 71  Z " fill-rule="nonzero" fill="#5777cf" stroke="none" />
  <path d="M 3170 71.5  C 3177 71.5  3182.5 77  3182.5 84  C 3182.5 91  3177 96.5  3170 96.5  C 3163 96.5  3157.5 91  3157.5 84  C 3157.5 77  3163 71.5  3170 71.5  Z " stroke-width="1" stroke="#333333" fill="none" />
  <path d="M 3170 90.5  C 3166.36 90.5  3163.5 87.64  3163.5 84  C 3163.5 80.36  3166.36 77.5  3170 77.5  C 3173.64 77.5  3176.5 80.36  3176.5 84  C 3176.5 87.64  3173.64 90.5  3170 90.5  " fill-rule="nonzero" fill="#333333" stroke="none" />
</svg>