<?xml version="1.0" encoding="utf-8"?>
<svg version="1.1" xmlns:xlink="http://www.w3.org/1999/xlink" width="130px" height="130px" xmlns="http://www.w3.org/2000/svg">
  <defs>
    <filter x="1834px" y="1030px" width="130px" height="130px" filterUnits="userSpaceOnUse" id="filter1">
      <feOffset dx="6" dy="4" in="SourceAlpha" result="shadowOffsetInner" />
      <feGaussianBlur stdDeviation="5" in="shadowOffsetInner" result="shadowGaussian" />
      <feComposite in2="shadowGaussian" operator="atop" in="SourceAlpha" result="shadowComposite" />
      <feColorMatrix type="matrix" values="0 0 0 0 0  0 0 0 0 0  0 0 0 0 0  0 0 0 0.207843137254902 0  " in="shadowComposite" />
    </filter>
    <g id="widget2">
      <path d="M 1893 1044  C 1919.32 1044  1940 1064.68  1940 1091  C 1940 1117.32  1919.32 1138  1893 1138  C 1866.68 1138  1846 1117.32  1846 1091  C 1846 1064.68  1866.68 1044  1893 1044  Z " fill-rule="nonzero" fill="#5f86f2" stroke="none" />
      <path d="M 1893 1040.5  C 1921.28 1040.5  1943.5 1062.72  1943.5 1091  C 1943.5 1119.28  1921.28 1141.5  1893 1141.5  C 1864.72 1141.5  1842.5 1119.28  1842.5 1091  C 1842.5 1062.72  1864.72 1040.5  1893 1040.5  Z " stroke-width="9" stroke="#5f86f2" fill="none" />
    </g>
  </defs>
  <g transform="matrix(1 0 0 1 -1834 -1030 )">
    <use xlink:href="#widget2" filter="url(#filter1)" />
    <use xlink:href="#widget2" />
  </g>
</svg>