<?xml version="1.0" encoding="utf-8"?>
<svg version="1.1" xmlns:xlink="http://www.w3.org/1999/xlink" width="26px" height="26px" viewBox="1969 71  26 26" xmlns="http://www.w3.org/2000/svg">
  <path d="M 1982 71  C 1989.28 71  1995 76.72  1995 84  C 1995 91.28  1989.28 97  1982 97  C 1974.72 97  1969 91.28  1969 84  C 1969 76.72  1974.72 71  1982 71  Z " fill-rule="nonzero" fill="#5777cf" stroke="none" />
  <path d="M 1982 71.5  C 1989 71.5  1994.5 77  1994.5 84  C 1994.5 91  1989 96.5  1982 96.5  C 1975 96.5  1969.5 91  1969.5 84  C 1969.5 77  1975 71.5  1982 71.5  Z " stroke-width="1" stroke="#333333" fill="none" />
  <path d="M 1982 90.5  C 1978.36 90.5  1975.5 87.64  1975.5 84  C 1975.5 80.36  1978.36 77.5  1982 77.5  C 1985.64 77.5  1988.5 80.36  1988.5 84  C 1988.5 87.64  1985.64 90.5  1982 90.5  " fill-rule="nonzero" fill="#333333" stroke="none" />
</svg>