<?xml version="1.0" encoding="utf-8"?>
<svg version="1.1" xmlns:xlink="http://www.w3.org/1999/xlink" width="26px" height="26px" viewBox="681 71  26 26" xmlns="http://www.w3.org/2000/svg">
  <path d="M 694 71  C 701.28 71  707 76.72  707 84  C 707 91.28  701.28 97  694 97  C 686.72 97  681 91.28  681 84  C 681 76.72  686.72 71  694 71  Z " fill-rule="nonzero" fill="#5777cf" stroke="none" />
  <path d="M 694 71.5  C 701 71.5  706.5 77  706.5 84  C 706.5 91  701 96.5  694 96.5  C 687 96.5  681.5 91  681.5 84  C 681.5 77  687 71.5  694 71.5  Z " stroke-width="1" stroke="#333333" fill="none" />
  <path d="M 694 90.5  C 690.36 90.5  687.5 87.64  687.5 84  C 687.5 80.36  690.36 77.5  694 77.5  C 697.64 77.5  700.5 80.36  700.5 84  C 700.5 87.64  697.64 90.5  694 90.5  " fill-rule="nonzero" fill="#333333" stroke="none" />
</svg>